<mxfile host="app.diagrams.net" agent="Mozilla/5.0 (Macintosh; Intel Mac OS X 10_15_7) AppleWebKit/537.36 (KHTML, like Gecko) Chrome/130.0.0.0 Safari/537.36" version="24.8.6">
  <diagram name="Page-1" id="Zv39QfKeAGgpEDCP1mTJ">
    <mxGraphModel dx="1194" dy="535" grid="1" gridSize="10" guides="1" tooltips="1" connect="1" arrows="1" fold="1" page="1" pageScale="1" pageWidth="850" pageHeight="1100" math="0" shadow="0">
      <root>
        <mxCell id="0" />
        <mxCell id="1" parent="0" />
        <mxCell id="g9XMB21R6jUBPIpzt-DB-5" value="" style="edgeStyle=orthogonalEdgeStyle;rounded=0;orthogonalLoop=1;jettySize=auto;html=1;" edge="1" parent="1" source="g9XMB21R6jUBPIpzt-DB-1" target="g9XMB21R6jUBPIpzt-DB-4">
          <mxGeometry relative="1" as="geometry" />
        </mxCell>
        <mxCell id="g9XMB21R6jUBPIpzt-DB-1" value="" style="ellipse;html=1;shape=startState;fillColor=#FFFFFF;strokeColor=#ff0000;" vertex="1" parent="1">
          <mxGeometry x="380" y="30" width="30" height="30" as="geometry" />
        </mxCell>
        <mxCell id="g9XMB21R6jUBPIpzt-DB-9" value="" style="edgeStyle=orthogonalEdgeStyle;rounded=0;orthogonalLoop=1;jettySize=auto;html=1;" edge="1" parent="1" source="g9XMB21R6jUBPIpzt-DB-4" target="g9XMB21R6jUBPIpzt-DB-8">
          <mxGeometry relative="1" as="geometry" />
        </mxCell>
        <mxCell id="g9XMB21R6jUBPIpzt-DB-4" value="Logs in with credentials" style="rounded=1;whiteSpace=wrap;html=1;fillColor=#FFFFFF;strokeColor=#ff0000;" vertex="1" parent="1">
          <mxGeometry x="307.5" y="90" width="175" height="60" as="geometry" />
        </mxCell>
        <mxCell id="g9XMB21R6jUBPIpzt-DB-11" value="" style="edgeStyle=orthogonalEdgeStyle;rounded=0;orthogonalLoop=1;jettySize=auto;html=1;" edge="1" parent="1" source="g9XMB21R6jUBPIpzt-DB-8" target="g9XMB21R6jUBPIpzt-DB-10">
          <mxGeometry relative="1" as="geometry" />
        </mxCell>
        <mxCell id="g9XMB21R6jUBPIpzt-DB-12" value="Yes" style="edgeLabel;html=1;align=center;verticalAlign=middle;resizable=0;points=[];" vertex="1" connectable="0" parent="g9XMB21R6jUBPIpzt-DB-11">
          <mxGeometry x="0.0667" y="-2" relative="1" as="geometry">
            <mxPoint as="offset" />
          </mxGeometry>
        </mxCell>
        <mxCell id="g9XMB21R6jUBPIpzt-DB-27" value="" style="edgeStyle=orthogonalEdgeStyle;rounded=0;orthogonalLoop=1;jettySize=auto;html=1;" edge="1" parent="1" source="g9XMB21R6jUBPIpzt-DB-8" target="g9XMB21R6jUBPIpzt-DB-26">
          <mxGeometry relative="1" as="geometry" />
        </mxCell>
        <mxCell id="g9XMB21R6jUBPIpzt-DB-28" value="No" style="edgeLabel;html=1;align=center;verticalAlign=middle;resizable=0;points=[];" vertex="1" connectable="0" parent="g9XMB21R6jUBPIpzt-DB-27">
          <mxGeometry x="-0.1892" relative="1" as="geometry">
            <mxPoint as="offset" />
          </mxGeometry>
        </mxCell>
        <mxCell id="g9XMB21R6jUBPIpzt-DB-8" value="Credentials Verified?" style="rhombus;whiteSpace=wrap;html=1;fillColor=#FFFFFF;strokeColor=#ff0000;rounded=1;" vertex="1" parent="1">
          <mxGeometry x="322.5" y="180" width="145" height="80" as="geometry" />
        </mxCell>
        <mxCell id="g9XMB21R6jUBPIpzt-DB-14" value="" style="edgeStyle=orthogonalEdgeStyle;rounded=0;orthogonalLoop=1;jettySize=auto;html=1;" edge="1" parent="1" source="g9XMB21R6jUBPIpzt-DB-10" target="g9XMB21R6jUBPIpzt-DB-13">
          <mxGeometry relative="1" as="geometry" />
        </mxCell>
        <mxCell id="g9XMB21R6jUBPIpzt-DB-10" value="Navigate to &#39;Send Message..&#39; Page" style="whiteSpace=wrap;html=1;fillColor=#FFFFFF;strokeColor=#ff0000;rounded=1;" vertex="1" parent="1">
          <mxGeometry x="317.5" y="320" width="155" height="60" as="geometry" />
        </mxCell>
        <mxCell id="g9XMB21R6jUBPIpzt-DB-16" value="" style="edgeStyle=orthogonalEdgeStyle;rounded=0;orthogonalLoop=1;jettySize=auto;html=1;" edge="1" parent="1" source="g9XMB21R6jUBPIpzt-DB-13" target="g9XMB21R6jUBPIpzt-DB-15">
          <mxGeometry relative="1" as="geometry" />
        </mxCell>
        <mxCell id="g9XMB21R6jUBPIpzt-DB-13" value="Enter Message&amp;nbsp;" style="whiteSpace=wrap;html=1;fillColor=#FFFFFF;strokeColor=#ff0000;rounded=1;" vertex="1" parent="1">
          <mxGeometry x="317.5" y="420" width="155" height="60" as="geometry" />
        </mxCell>
        <mxCell id="g9XMB21R6jUBPIpzt-DB-18" value="" style="edgeStyle=orthogonalEdgeStyle;rounded=0;orthogonalLoop=1;jettySize=auto;html=1;" edge="1" parent="1" source="g9XMB21R6jUBPIpzt-DB-15" target="g9XMB21R6jUBPIpzt-DB-17">
          <mxGeometry relative="1" as="geometry" />
        </mxCell>
        <mxCell id="g9XMB21R6jUBPIpzt-DB-15" value="Enter Message&amp;nbsp;" style="whiteSpace=wrap;html=1;fillColor=#FFFFFF;strokeColor=#ff0000;rounded=1;" vertex="1" parent="1">
          <mxGeometry x="317.5" y="520" width="155" height="60" as="geometry" />
        </mxCell>
        <mxCell id="g9XMB21R6jUBPIpzt-DB-20" value="" style="edgeStyle=orthogonalEdgeStyle;rounded=0;orthogonalLoop=1;jettySize=auto;html=1;" edge="1" parent="1" source="g9XMB21R6jUBPIpzt-DB-17" target="g9XMB21R6jUBPIpzt-DB-19">
          <mxGeometry relative="1" as="geometry" />
        </mxCell>
        <mxCell id="g9XMB21R6jUBPIpzt-DB-17" value="Click &quot;Send&quot;" style="whiteSpace=wrap;html=1;fillColor=#FFFFFF;strokeColor=#ff0000;rounded=1;" vertex="1" parent="1">
          <mxGeometry x="317.5" y="630" width="155" height="60" as="geometry" />
        </mxCell>
        <mxCell id="g9XMB21R6jUBPIpzt-DB-19" value="Confirmation of Message Sent" style="whiteSpace=wrap;html=1;fillColor=#FFFFFF;strokeColor=#ff0000;rounded=1;" vertex="1" parent="1">
          <mxGeometry x="317.5" y="730" width="155" height="60" as="geometry" />
        </mxCell>
        <mxCell id="g9XMB21R6jUBPIpzt-DB-30" value="" style="edgeStyle=orthogonalEdgeStyle;rounded=0;orthogonalLoop=1;jettySize=auto;html=1;" edge="1" parent="1" source="g9XMB21R6jUBPIpzt-DB-26" target="g9XMB21R6jUBPIpzt-DB-29">
          <mxGeometry relative="1" as="geometry" />
        </mxCell>
        <mxCell id="g9XMB21R6jUBPIpzt-DB-26" value="Display Error Message" style="whiteSpace=wrap;html=1;fillColor=#FFFFFF;strokeColor=#ff0000;rounded=1;" vertex="1" parent="1">
          <mxGeometry x="110" y="190" width="120" height="60" as="geometry" />
        </mxCell>
        <mxCell id="g9XMB21R6jUBPIpzt-DB-29" value="Re-enter Credentials" style="whiteSpace=wrap;html=1;fillColor=#FFFFFF;strokeColor=#ff0000;rounded=1;" vertex="1" parent="1">
          <mxGeometry x="110" y="330" width="120" height="60" as="geometry" />
        </mxCell>
        <mxCell id="g9XMB21R6jUBPIpzt-DB-35" value="" style="ellipse;html=1;shape=endState;fillColor=#000000;strokeColor=#ff0000;" vertex="1" parent="1">
          <mxGeometry x="380" y="830" width="30" height="30" as="geometry" />
        </mxCell>
        <mxCell id="g9XMB21R6jUBPIpzt-DB-36" value="" style="edgeStyle=orthogonalEdgeStyle;rounded=0;orthogonalLoop=1;jettySize=auto;html=1;entryX=0.5;entryY=0;entryDx=0;entryDy=0;" edge="1" parent="1" target="g9XMB21R6jUBPIpzt-DB-35">
          <mxGeometry relative="1" as="geometry">
            <mxPoint x="394.5" y="790" as="sourcePoint" />
            <mxPoint x="394.5" y="830" as="targetPoint" />
          </mxGeometry>
        </mxCell>
      </root>
    </mxGraphModel>
  </diagram>
</mxfile>
